<?xml version="1.0" encoding="UTF-8" standalone="no"?>
<svg xmlns="http://www.w3.org/2000/svg" width="32" height="32" viewBox="0 0 31.999996 32" version="1.1" id="svg850">
  <metadata id="metadata2060">
    
  </metadata>
  <defs id="defs2058"></defs>
  
  <g id="layer1" transform="matrix(3.546166,0,0,3.7503822,0.9878971,0.1233817)" style="stroke-width:0.71294504;stroke-miterlimit:4;stroke-dasharray:none">
    <path style="fill:none;fill-rule:evenodd;stroke:#000000;stroke-width:0.71294504;stroke-linecap:round;stroke-linejoin:round;stroke-miterlimit:4;stroke-dasharray:none" id="path1413" d="M 3.83762,4.4522896 C 3.7949673,4.6871384 3.5000051,4.5106607 3.4472858,4.381398 3.3044197,4.0311039 3.6594982,3.7129599 3.9794033,3.6716212 4.5516383,3.597676 4.992844,4.1292549 5.0086226,4.6649644 5.0317783,5.4511397 4.3035549,6.0299893 3.5540535,6.0136264 2.555086,5.9918171 1.834859,5.060583 1.8859491,4.0978315 1.9502406,2.8863069 3.0871843,2.0231743 4.2629697,2.1102844 5.6870035,2.2157865 6.6938302,3.5598248 6.5699594,4.9485309 6.4239819,6.5850731 4.8720446,7.7360583 3.2704871,7.5749631 1.4214254,7.3889724 0.12598346,5.6286277 0.32461229,3.814265 0.55030698,1.7526708 2.5194013,0.31256843 4.5465362,0.54894766 6.8206752,0.81412943 8.4055834,2.9922146 8.1312961,5.2320974 8.0046975,6.2659261 7.5022219,7.2344958 6.7404072,7.9431363"></path>
  </g>
</svg>
